<svg xmlns="http://www.w3.org/2000/svg" width="328" height="58" viewBox="0 0 328 58">
    <g fill="none" fill-rule="nonzero">
        <path fill="#FFF" d="M148.655.756V38.65l7.226-7.314v-14.19l9.827 5.839 5.287-4.429z"/>
        <path fill="#EF3B32" d="M148.873.16l-23.191 18.482 23.204 20.85 7.679-7.68v-8.096h9.17l6.355-5.057L148.873.161zm16.78 22.253l-10.146-6.169v15.114l-6.637 6.637.001-36.48 21.52 17.13-4.738 3.768z"/>
        <path fill="#FFF" d="M3.567 50.546c-.047-.59-.361-.761-.628-.761-.38 0-.59.248-.59.676 0 1.17 2.398 1.732 2.398 3.597 0 1.133-.761 1.762-1.865 1.762-1.095 0-1.723-.876-1.77-1.904l1.123-.162c.047.695.323 1.037.704 1.037.41 0 .686-.218.686-.628 0-1.36-2.399-1.723-2.399-3.692 0-1.096.666-1.714 1.827-1.714.961 0 1.532.695 1.637 1.666l-1.123.123zM23.028 54.03c0 .514.152.761.628.761s.628-.247.628-.761v-3.484c0-.513-.152-.761-.628-.761s-.628.248-.628.761v3.484zm-1.18-3.512c0-.971.57-1.76 1.808-1.76 1.237 0 1.808.789 1.808 1.76v3.54c0 .971-.57 1.762-1.808 1.762s-1.809-.791-1.809-1.762v-3.54zM42.564 55.724v-6.872h3.293v1.028h-2.113v1.77h1.58v1.028h-1.58v3.046zM64.099 49.88h-1.142v-1.028h3.464v1.028h-1.142v5.844H64.1zM86.138 48.852h.971l.8 4.378h.018l.657-4.378h1.104l-1.209 6.872h-.99l-.856-4.54h-.02l-.798 4.54h-.99l-1.304-6.872h1.104l.723 4.378h.02zM108.31 53.173h.953l-.466-2.95h-.02l-.466 2.95zm-.38 2.55h-1.141l1.265-6.871h1.466l1.266 6.872h-1.143l-.209-1.523h-1.294l-.21 1.523zM129.065 51.936h.419c.638 0 .876-.239.876-1.057 0-.819-.238-1.056-.876-1.056h-.419v2.113zm0 3.788h-1.18v-6.872h1.656c1.323 0 1.999.562 1.999 2.027 0 1.104-.428 1.551-.828 1.733l.999 3.112h-1.2l-.836-2.846c-.152.019-.4.029-.61.029v2.817zM148.812 55.724v-6.872h3.16v1.028h-1.98v1.77h1.522v1.028h-1.522v2.018h2.113v1.028zM4.466 42.46l-4.07-.009 12.7-19.044 2.123.009 12.74 19.168-4.098.016-3.916-5.85-11.58-.016-3.899 5.725zm5.796-8.585l7.783-.016-3.892-6.015-3.891 6.031zM31.216 42.583V23.408h19.237l-.035 2.909H34.83v4.826h13.686v2.949H34.83v5.583h16.176v2.948zM86.518 23.401l3.587-.002.017 19.185-3.608.01zM79.365 32.702l.04 7.84s-2.826 2.442-11.38 2.442c-10.274 0-14.702-5.655-14.702-9.976C53.323 25.894 61.719 23 68.266 23c8.199 0 12.156 4.878 12.156 4.878l-3.305 1.32s-2.512-3.238-8.79-3.238c-7.139 0-11.373 3.085-11.373 7.139 0 4.56 5.82 6.874 9.787 6.874 5.816 0 9.12-1.124 9.12-1.124l.007-3.166-10.383.06.015-3.023 13.865-.018zM119.815 27.282s-2.137-4.296-11.104-4.296c-10.377 0-12.889 2.6-12.889 5.221 0 1.873 1.785 3.371 3.57 3.9 1.784.529 4.56 1.058 7.468 1.454 2.908.397 6.159.906 7.775 1.335.994.264 2.338 1.045 2.338 1.904s-1.057 1.719-3.172 2.446c-2.115.727-5.023.815-6.412.815-3.503 0-5.343-.407-6.84-.937-2.479-.874-3.206-1.927-3.206-1.927l-3.085 1.828s2.522 1.929 4.67 2.688c2.182.771 5.442 1.212 8.858 1.212 2.908 0 6.764-.463 9.517-1.895 2.385-1.24 3.217-2.511 3.217-4.296 0-2.093-2.049-4.054-5.826-4.842-3.182-.665-4.41-.774-7.04-1.195-2.565-.41-5.65-.958-6.722-1.248-.88-.238-1.518-.712-1.518-1.308 0-.594 1.101-1.343 2.49-1.674 1.387-.33 3.634-.551 5.815-.551 2.182 0 5.873.43 7.073 1.102 1.283.717 1.718 1.52 1.718 1.52l3.305-1.256z"/>
        <g fill="#CACACA">
            <path d="M187.823 33.25l-.364.695c-.827-.706-3.231-1.269-3.64.265-.1.827.607 1.026 1.147 1.234l1.864.729c1.632.607 1.445 2.018 1.136 2.713-.496 1.103-2.107 1.555-3.949.97-.408-.132-.97-.397-1.378-.761l.419-.706c.926.784 3.352 1.511 4.092.022.231-.705-.22-1.158-.762-1.367l-2.15-.828c-1.335-.485-1.49-1.4-1.39-2.073.21-1.335 1.853-2.108 3.893-1.49.464.168.84.399 1.082.597zM190.055 42.196h-.948v-7.557h.937l.011.762c.42-.728 1.137-.883 1.743-.883 1.4 0 2.273.883 2.273 2.79 0 1.91-1.06 2.825-2.493 2.825-.53 0-1.291-.22-1.523-.761v2.824zm3.012-4.887c0-1.003-.364-2.007-1.467-2.007-.53 0-1.545.342-1.545 1.4v1.622c0 .816 1.037 1.026 1.346 1.026 1.335 0 1.666-.982 1.666-2.041zM194.83 37.32c0-1.61.95-2.802 2.527-2.802 1.665 0 2.68 1.18 2.504 3.155h-4.082c0 .97.673 1.666 1.788 1.666.32 0 .716.033 1.643-.343l.298.696c-.343.198-1.06.44-2.03.44-1.478 0-2.648-1.058-2.648-2.811zm.982-.43h3.134c-.045-1.026-.685-1.577-1.59-1.577-.904 0-1.533.804-1.544 1.577zM200.642 37.32c0-1.61.95-2.802 2.527-2.802 1.665 0 2.68 1.18 2.504 3.155h-4.082c0 .97.673 1.666 1.788 1.666.32 0 .716.033 1.643-.343l.298.696c-.343.198-1.06.44-2.03.44-1.478 0-2.648-1.058-2.648-2.811zm.982-.43h3.133c-.044-1.026-.684-1.577-1.59-1.577-.903 0-1.532.804-1.543 1.577zM210.469 32.555h.949v7.434h-.937v-.607c-.42.729-1.467.729-1.578.729-1.4 0-2.448-.883-2.448-2.791 0-1.909 1.059-2.803 2.493-2.803.529 0 1.28.244 1.522.883v-2.845h-.001zm-3.01 4.766c0 1.003.363 2.007 1.466 2.007.53 0 1.545-.12 1.545-1.18v-1.721c-.078-.816-1.037-1.125-1.346-1.125-1.335 0-1.665.96-1.665 2.019zM213.149 38.953h1.003l-1.258 2.073h-.727zM221.76 32.434c.75 0 1.676.12 2.173.375l-.276.728c-.662-.243-1.456-.253-1.644-.253-2.162 0-2.956 1.544-2.956 2.989 0 1.445.794 2.989 2.956 2.989.331 0 .937 0 1.666-.254l.253.729c-.496.253-1.422.375-2.173.375-2.283 0-3.684-1.698-3.684-3.839 0-2.14 1.401-3.84 3.685-3.84zM226.985 34.518c1.588 0 2.58 1.048 2.58 2.803 0 1.753-.992 2.812-2.58 2.812-1.589 0-2.57-1.06-2.57-2.812 0-1.755.981-2.803 2.57-2.803zm0 .762c-1.082 0-1.633 1.004-1.633 2.04 0 1.038.551 2.052 1.633 2.052 1.059 0 1.643-1.026 1.643-2.051 0-1.026-.584-2.041-1.643-2.041zM235.198 39.99h-.948v-3.134c0-.904-.309-1.555-1.202-1.555-.386 0-1.544.21-1.544 1.522v3.166h-.95v-5.338h.883v.993c.31-.927 1.137-1.114 1.633-1.114 1.246 0 2.128.562 2.128 2.327v3.132zM235.838 35.412v-.76h.75v-1.358h.937v1.357h1.236v.761h-1.236v2.99c0 .364.066 1.246 1.302.838l.077.694c-.342.177-.706.177-.794.177-.242 0-1.522.133-1.522-1.676v-3.023h-.75zM242.4 35.4c-.165-.01-.32 0-.518 0-.628 0-1.191.41-1.191 1.314v3.275h-.95v-5.338h.883v.871c.22-.662.805-.993 1.39-.993h.386v.872zM245.384 34.518c1.589 0 2.582 1.048 2.582 2.803 0 1.753-.993 2.812-2.582 2.812-1.588 0-2.57-1.06-2.57-2.812 0-1.755.982-2.803 2.57-2.803zm0 .762c-1.08 0-1.632 1.004-1.632 2.04 0 1.038.552 2.052 1.632 2.052 1.06 0 1.644-1.026 1.644-2.051 0-1.026-.585-2.041-1.644-2.041zM248.993 32.555h.95v7.434h-.95zM257.44 39.99v-.608a1.863 1.863 0 0 1-1.49.729c-1.059 0-1.952-.552-1.952-1.61 0-1.358 1.357-1.821 3.474-1.932v-.33c0-.055.067-.96-1.257-.96-.817 0-1.18.231-1.566.419l-.276-.662c0-.011.739-.519 1.887-.519 0 0 2.161-.12 2.161 1.689v3.783h-.982zm.032-1.787v-.948c-1.577.087-2.614.507-2.592 1.213.022.551.474.87 1.092.87.254 0 1.5-.098 1.5-1.135zM264.285 39.99h-.949v-3.134c0-.904-.308-1.555-1.202-1.555-.386 0-1.544.21-1.544 1.522v3.166h-.949v-5.338h.883v.993c.308-.927 1.136-1.114 1.632-1.114 1.247 0 2.128.562 2.128 2.327v3.132h.001zM269.273 32.555h.949v7.434h-.937v-.607c-.42.729-1.467.729-1.578.729-1.4 0-2.448-.883-2.448-2.791 0-1.909 1.059-2.803 2.493-2.803.529 0 1.28.244 1.522.883v-2.845h-.001zm-3.011 4.766c0 1.003.363 2.007 1.467 2.007.529 0 1.544-.12 1.544-1.18v-1.721c-.077-.816-1.036-1.125-1.346-1.125-1.335 0-1.665.96-1.665 2.019zM275.026 32.555l2.339 6.452 2.338-6.452h.97l-2.812 7.434h-.993l-2.813-7.434zM281.463 32.555h1v.96h-1v-.96zm0 2.096h1v5.338h-1v-5.338zM286.109 38.037l-1.61-.628c-1.07-.464-1.07-1.17-.993-1.655.154-.982 1.39-1.544 2.912-1.07.297.1.518.21.816.397l-.386.65c-.761-.54-2.493-.595-2.482.233 0 .628.441.551 2.074 1.235 1.202.497 1.07 1.522.838 2.04-.364.794-1.556 1.126-2.912.706-.298-.099-.718-.298-1.015-.563l.396-.662c.586.497 2.427.96 2.78.1.167-.573-.308-.728-.418-.783zM288.348 32.555h1v.96h-1v-.96zm0 2.096h1v5.338h-1v-5.338zM291.515 35.4c.244-.638.993-.882 1.523-.882 1.434 0 2.493.894 2.493 2.803 0 1.908-1.048 2.79-2.45 2.79-.11 0-1.158 0-1.577-.728v.607h-.937v-7.434h.948V35.4zm0 1.027v1.721c0 1.06 1.015 1.18 1.545 1.18 1.102 0 1.467-1.003 1.467-2.007 0-1.06-.331-2.019-1.666-2.019-.308 0-1.268.31-1.346 1.125zM296.575 32.555h1v.96h-1v-.96zm0 2.096h1v5.338h-1v-5.338zM298.791 32.555h.95v7.434h-.95zM301.009 32.555h1v.96h-1v-.96zm0 2.096h1v5.338h-1v-5.338zM302.72 35.412v-.76h.75v-1.358h.937v1.357h1.235v.761h-1.235v2.99c0 .364.066 1.246 1.301.838l.077.694c-.341.177-.705.177-.793.177-.243 0-1.522.133-1.522-1.676v-3.023h-.75zM307.138 41.313c.154.088.342.078.496.078.463 0 .64-.409.64-.419l.375-.927-2.405-5.394h1.004l1.841 4.356 1.777-4.356h1.003l-2.846 6.695c-.33.762-1.059.85-1.345.85-.21 0-.441-.055-.64-.133l.1-.75zM315.957 34.651v-.519c0-1.808 1.268-1.697 1.51-1.697.089 0 .453.02.795.198l-.088.64c-1.213-.386-1.28.374-1.28.738v.64h1.06v.716h-1.06v4.622h-.937v-4.622h-.672v-.716h.672zM320.877 34.518c1.589 0 2.58 1.048 2.58 2.803 0 1.753-.992 2.812-2.58 2.812-1.589 0-2.57-1.06-2.57-2.812 0-1.755.982-2.803 2.57-2.803zm0 .762c-1.08 0-1.633 1.004-1.633 2.04 0 1.038.552 2.052 1.633 2.052 1.059 0 1.644-1.026 1.644-2.051 0-1.026-.585-2.041-1.644-2.041zM327.161 35.4c-.165-.01-.32 0-.518 0-.63 0-1.191.41-1.191 1.314v3.275h-.95v-5.338h.883v.871c.22-.662.805-.993 1.39-.993h.386v.872zM183.422 48.971l-.22 6.585h-.95l.287-7.434h1.466l2.36 6.1 2.36-6.1h1.468l.286 7.434h-.948l-.22-6.585-2.57 6.585h-.75l-2.57-6.585zM194.794 55.556v-.607a1.863 1.863 0 0 1-1.489.728c-1.059 0-1.952-.551-1.952-1.61 0-1.358 1.357-1.82 3.475-1.93v-.332c0-.055.066-.96-1.258-.96-.816 0-1.18.232-1.566.42l-.276-.662c0-.012.739-.519 1.887-.519 0 0 2.161-.12 2.161 1.688v3.784h-.982zm.034-1.787v-.948c-1.578.088-2.614.508-2.592 1.214.021.55.474.87 1.092.87.253 0 1.5-.099 1.5-1.136zM201.64 55.556h-.948v-3.133c0-.904-.31-1.555-1.203-1.555-.386 0-1.544.209-1.544 1.522v3.166h-.948v-5.338h.882v.993c.31-.927 1.136-1.114 1.632-1.114 1.247 0 2.129.562 2.129 2.327v3.132zM202.837 50.218h.948v3.132c0 .904.31 1.567 1.203 1.567.21 0 1.544-.056 1.544-1.368v-3.33h.949v5.338h-.883v-.75c-.375.728-1.335.893-1.632.893-1.247 0-2.129-.584-2.129-2.349v-3.133zM208.98 50.218v-.519c0-1.809 1.268-1.698 1.511-1.698.088 0 .452.022.795.199l-.088.64c-1.214-.387-1.28.374-1.28.738v.64h1.059v.716h-1.06v4.621h-.936v-4.621h-.673v-.717h.672v.001zM214.804 55.556v-.607a1.863 1.863 0 0 1-1.49.728c-1.058 0-1.951-.551-1.951-1.61 0-1.358 1.357-1.82 3.474-1.93v-.332c0-.055.066-.96-1.257-.96-.816 0-1.18.232-1.567.42l-.275-.662c0-.012.738-.519 1.886-.519 0 0 2.162-.12 2.162 1.688v3.784h-.982zm.033-1.787v-.948c-1.577.088-2.613.508-2.591 1.214.02.55.474.87 1.092.87.253 0 1.499-.099 1.499-1.136zM219.44 50.085c.54 0 1.213.1 1.577.287l-.21.728a3.397 3.397 0 0 0-1.169-.21c-1.39 0-1.963.948-1.963 1.997 0 1.047.574 2.007 1.963 2.007.243 0 .64-.033 1.169-.22l.21.728c-.364.187-1.036.297-1.577.297-1.666 0-2.68-1.059-2.68-2.812-.002-1.754 1.014-2.802 2.68-2.802zM221.618 50.979v-.761h.75V48.86h.937v1.358h1.235v.76h-1.235v2.99c0 .364.066 1.246 1.302.838l.077.695c-.343.177-.706.177-.795.177-.242 0-1.522.132-1.522-1.676v-3.023h-.75zM225.419 50.218h.948v3.132c0 .904.31 1.567 1.202 1.567.21 0 1.545-.056 1.545-1.368v-3.33h.948v5.338h-.882v-.75c-.375.728-1.335.893-1.632.893-1.247 0-2.13-.584-2.13-2.349v-3.133zM234.027 50.968c-.166-.011-.32 0-.518 0-.629 0-1.192.408-1.192 1.312v3.276h-.948v-5.338h.882v.87c.22-.661.805-.992 1.39-.992h.386v.872zM234.795 48.122h1v.96h-1v-.96zm0 2.096h1v5.338h-1v-5.338zM241.629 55.556h-.95v-3.133c0-.904-.308-1.555-1.2-1.555-.387 0-1.545.209-1.545 1.522v3.166h-.949v-5.338h.883v.993c.309-.927 1.135-1.114 1.632-1.114 1.246 0 2.129.562 2.129 2.327v3.132zM246.616 54.95c-.232.54-.993.728-1.523.728-1.434 0-2.493-.883-2.493-2.79 0-1.91 1.048-2.803 2.449-2.803.11 0 1.158.012 1.577.883v-.75h.937v5.813c0 1.334-1.225 1.731-2.382 1.731-.838 0-1.644-.21-1.93-.43l.231-.673c.585.353 1.368.376 1.622.376 1.467 0 1.523-.684 1.523-1.169l-.011-.916zm0-1.048V52.06c0-1.06-1.015-1.192-1.545-1.192-1.103 0-1.467 1.015-1.467 2.019 0 1.059.331 2.007 1.666 2.007.31 0 1.346-.187 1.346-.992zM251.73 51.838c0-2.404 1.356-3.837 3.54-3.837 2.183 0 3.54 1.433 3.54 3.837 0 2.405-1.357 3.84-3.54 3.84-2.184 0-3.54-1.435-3.54-3.84zm1.002 0c0 1.71.828 3.023 2.537 3.023 1.71 0 2.538-1.313 2.538-3.023 0-1.62-.827-3.022-2.538-3.022-1.71.001-2.537 1.402-2.537 3.022zM260.9 57.762h-.949v-7.556h.938l.011.762c.42-.729 1.136-.883 1.743-.883 1.4 0 2.272.883 2.272 2.79 0 1.91-1.059 2.824-2.493 2.824-.529 0-1.29-.22-1.522-.76v2.823zm3.011-4.886c0-1.004-.364-2.008-1.466-2.008-.53 0-1.545.343-1.545 1.401v1.622c0 .816 1.037 1.026 1.346 1.026 1.334 0 1.665-.982 1.665-2.041zM265.675 52.887c0-1.61.95-2.802 2.526-2.802 1.666 0 2.68 1.18 2.504 3.155h-4.08c0 .97.672 1.666 1.787 1.666.319 0 .716.033 1.643-.343l.298.695c-.343.199-1.06.441-2.03.441-1.478 0-2.648-1.059-2.648-2.812zm.982-.43h3.133c-.044-1.026-.684-1.578-1.589-1.578-.904 0-1.533.805-1.544 1.578zM274.388 50.968c-.165-.011-.32 0-.518 0-.629 0-1.191.408-1.191 1.312v3.276h-.95v-5.338h.884v.87c.22-.661.804-.992 1.39-.992h.385v.872zM278.244 55.556v-.607a1.863 1.863 0 0 1-1.49.728c-1.059 0-1.952-.551-1.952-1.61 0-1.358 1.357-1.82 3.475-1.93v-.332c0-.055.066-.96-1.258-.96-.816 0-1.18.232-1.566.42l-.276-.662c0-.012.739-.519 1.887-.519 0 0 2.162-.12 2.162 1.688v3.784h-.982zm.033-1.787v-.948c-1.578.088-2.614.508-2.592 1.214.021.55.474.87 1.092.87.253 0 1.5-.099 1.5-1.136zM279.918 50.979v-.761h.75V48.86h.938v1.358h1.235v.76h-1.235v2.99c0 .364.066 1.246 1.302.838l.077.695c-.343.177-.706.177-.795.177-.242 0-1.522.132-1.522-1.676v-3.023h-.75zM283.797 48.122h1v.96h-1v-.96zm0 2.096h1v5.338h-1v-5.338zM288.334 50.085c1.589 0 2.581 1.048 2.581 2.802s-.993 2.812-2.581 2.812c-1.589 0-2.57-1.059-2.57-2.812 0-1.754.981-2.802 2.57-2.802zm0 .761c-1.08 0-1.633 1.004-1.633 2.041s.552 2.052 1.633 2.052c1.059 0 1.644-1.026 1.644-2.052 0-1.025-.585-2.04-1.644-2.04zM296.548 55.556h-.948v-3.133c0-.904-.31-1.555-1.202-1.555-.386 0-1.544.209-1.544 1.522v3.166h-.948v-5.338h.881v.993c.31-.927 1.137-1.114 1.633-1.114 1.246 0 2.128.562 2.128 2.327v3.132zM300.171 53.604l-1.61-.628c-1.07-.464-1.07-1.17-.993-1.656.154-.982 1.39-1.544 2.912-1.069.298.1.518.21.816.397l-.385.65c-.762-.54-2.493-.595-2.482.233 0 .628.441.55 2.074 1.234 1.201.497 1.07 1.522.838 2.041-.364.794-1.556 1.126-2.912.706-.298-.1-.717-.299-1.015-.563l.397-.662c.585.496 2.427.96 2.78.1.165-.574-.309-.728-.42-.783z"/>
        </g>
    </g>
</svg>
